<svg xmlns="http://www.w3.org/2000/svg" width="786" height="842" viewBox="0 0 786 842"><defs><style>.a{fill:#dfeef4;}.b,.e{fill:#1c56b7;}.b,.f{font-size:24px;}.b,.e,.f{font-family:YuGo-Bold, YuGothic;font-weight:700;}.c,.f{fill:#707070;}.c,.e{font-size:20px;}.c{font-family:YuGo-Medium, YuGothic;font-weight:500;}.d{fill:#fcd917;}</style></defs><g transform="translate(-55 -5811)"><rect class="a" width="222" height="80" transform="translate(55 6573)"/><text class="b" transform="translate(70 6624)"><tspan x="0" y="0">料金</tspan></text><text class="c" transform="translate(313 6622)"><tspan x="0" y="0">２万円/月</tspan></text><text class="c" transform="translate(445 6622)"><tspan x="0" y="0">10万円/初回</tspan></text><circle class="d" cx="40" cy="40" r="40" transform="translate(587 6573)"/><text class="e" transform="translate(582 6622)"><tspan x="0" y="0">3980円/月</tspan></text><rect class="a" width="222" height="80" transform="translate(55 6473)"/><text class="b" transform="translate(70 6524)"><tspan x="0" y="0">企業様と繋がれる</tspan></text><circle class="d" cx="40" cy="40" r="40" transform="translate(316 6473)"/><text class="e" transform="translate(356 6522)"><tspan x="-50" y="0">チャンス多</tspan></text><text class="c" transform="translate(479 6522)"><tspan x="0" y="0">なし</tspan></text><text class="c" transform="translate(627 6522)"><tspan x="-50" y="0">チャンス少</tspan></text><rect class="a" width="222" height="80" transform="translate(55 6373)"/><text class="b" transform="translate(70 6424)"><tspan x="0" y="0">エンジニア率</tspan></text><circle class="d" cx="40" cy="40" r="40" transform="translate(316 6373)"/><text class="e" transform="translate(356 6402)"><tspan x="-40" y="0">駆け出し</tspan><tspan x="-20" y="34">現役</tspan></text><text class="c" transform="translate(499 6402)"><tspan x="-69.3" y="0">プログラミング</tspan><tspan x="-30" y="34">初心者</tspan></text><circle class="d" cx="40" cy="40" r="40" transform="translate(587 6373)"/><text class="e" transform="translate(627 6402)"><tspan x="-40" y="0">駆け出し</tspan><tspan x="-20" y="34">現役</tspan></text><rect class="a" width="222" height="80" transform="translate(55 6273)"/><text class="b" transform="translate(70 6324)"><tspan x="0" y="0">転職支援</tspan></text><circle class="d" cx="40" cy="40" r="40" transform="translate(316 6273)"/><text class="e" transform="translate(336 6322)"><tspan x="0" y="0">あり</tspan></text><circle class="d" cx="40" cy="40" r="40" transform="translate(459 6273)"/><text class="e" transform="translate(479 6322)"><tspan x="0" y="0">あり</tspan></text><text class="c" transform="translate(607 6322)"><tspan x="0" y="0">なし</tspan></text><rect class="a" width="222" height="80" transform="translate(55 6173)"/><text class="b" transform="translate(70 6197)"><tspan x="0" y="21">イベント</tspan></text><circle class="d" cx="40" cy="40" r="40" transform="translate(316 6173)"/><text class="e" transform="translate(356 6202)"><tspan x="-49.5" y="0">イベント多</tspan><tspan x="-20" y="34">活発</tspan></text><text class="c" transform="translate(499 6222)"><tspan x="-30" y="0">少ない</tspan></text><text class="c" transform="translate(627 6222)"><tspan x="-40" y="0">一部だけ</tspan></text><rect class="a" width="222" height="80" transform="translate(55 6073)"/><text class="b" transform="translate(70 6124)"><tspan x="0" y="0">２次受託支援</tspan></text><circle class="d" cx="40" cy="40" r="40" transform="translate(316 6073)"/><text class="e" transform="translate(336 6122)"><tspan x="0" y="0">あり</tspan></text><text class="c" transform="translate(479 6122)"><tspan x="0" y="0">なし</tspan></text><text class="c" transform="translate(607 6122)"><tspan x="0" y="0">なし</tspan></text><rect class="a" width="222" height="80" transform="translate(55 5973)"/><text class="b" transform="translate(70 6024)"><tspan x="0" y="0">受注内容</tspan></text><circle class="d" cx="40" cy="40" r="40" transform="translate(316 5973)"/><text class="e" transform="translate(336 6022)"><tspan x="0" y="0">多彩</tspan></text><text class="c" transform="translate(469 6022)"><tspan x="0" y="0">１言語</tspan></text><text class="c" transform="translate(597 6022)"><tspan x="0" y="0">３種類</tspan></text><rect class="a" width="222" height="80" transform="translate(55 5873)"/><text class="b" transform="translate(70 5924)"><tspan x="0" y="0">受注件数</tspan></text><circle class="d" cx="40" cy="40" r="40" transform="translate(316 5873)"/><text class="e" transform="translate(322 5922)"><tspan x="0" y="0">10件/月</tspan></text><text class="c" transform="translate(456 5922)"><tspan x="0" y="0">１件/半年</tspan></text><text class="c" transform="translate(574 5922)"><tspan x="0" y="0">１件/３ヶ月</tspan></text><text class="b" transform="translate(308 5832)"><tspan x="0" y="0">TRYBEE</tspan></text><text class="f" transform="translate(455 5832)"><tspan x="0" y="0">Aサロン</tspan></text><text class="f" transform="translate(582 5832)"><tspan x="0" y="0">Bサロン</tspan></text><text class="c" transform="translate(771 6402)"><tspan x="-69.3" y="0">プログラミング</tspan><tspan x="-30" y="34">初心者</tspan></text><text class="c" transform="translate(718 6622)"><tspan x="0" y="0">８万円/初回</tspan></text><text class="c" transform="translate(771 6222)"><tspan x="-49.5" y="0">イベント有</tspan></text><text class="f" transform="translate(729 5832)"><tspan x="0" y="0">cサロン</tspan></text><text class="c" transform="translate(751 6522)"><tspan x="0" y="0">なし</tspan></text><text class="c" transform="translate(751 6322)"><tspan x="0" y="0">なし</tspan></text><text class="c" transform="translate(751 6122)"><tspan x="0" y="0">なし</tspan></text><text class="c" transform="translate(751 6022)"><tspan x="0" y="0">なし</tspan></text><text class="c" transform="translate(751 5922)"><tspan x="0" y="0">なし</tspan></text></g></svg>