<svg xmlns="http://www.w3.org/2000/svg" width="1143" height="875" viewBox="0 0 1143 875"><defs><style>.a{fill:#dfeef4;}.b,.e{fill:#1c56b7;}.b,.f{font-size:28px;}.b,.e,.f{font-family:YuGo-Bold, YuGothic;font-weight:700;}.c,.f{fill:#707070;}.c,.e{font-size:24px;}.c{font-family:YuGo-Medium, YuGothic;font-weight:500;}.d{fill:#fcd917;}</style></defs><g transform="translate(-100 -7878)"><rect class="a" width="320" height="80" transform="translate(100 8673)"/><text class="b" transform="translate(130 8724)"><tspan x="0" y="0">料金</tspan></text><text class="c" transform="translate(472 8722)"><tspan x="0" y="0">２万円/月</tspan></text><text class="c" transform="translate(670 8722)"><tspan x="0" y="0">10万円/初回</tspan></text><circle class="d" cx="40" cy="40" r="40" transform="translate(908 8673)"/><text class="e" transform="translate(890 8722)"><tspan x="0" y="0">3980円/月</tspan></text><text class="c" transform="translate(1093 8722)"><tspan x="0" y="0">８万円/初回</tspan></text><rect class="a" width="320" height="80" transform="translate(100 8573)"/><text class="b" transform="translate(130 8624)"><tspan x="0" y="0">企業様と繋がれる</tspan></text><circle class="d" cx="40" cy="40" r="40" transform="translate(486 8573)"/><text class="e" transform="translate(526 8622)"><tspan x="-60" y="0">チャンス多</tspan></text><text class="c" transform="translate(713 8622)"><tspan x="0" y="0">なし</tspan></text><text class="c" transform="translate(948 8622)"><tspan x="-60" y="0">チャンス少</tspan></text><text class="c" transform="translate(1135 8622)"><tspan x="0" y="0">なし</tspan></text><rect class="a" width="320" height="80" transform="translate(100 8473)"/><text class="b" transform="translate(130 8524)"><tspan x="0" y="0">エンジニア率</tspan></text><circle class="d" cx="40" cy="40" r="40" transform="translate(486 8473)"/><text class="e" transform="translate(526 8502)"><tspan x="-48" y="0">駆け出し</tspan><tspan x="-24" y="41">現役</tspan></text><text class="c" transform="translate(737 8502)"><tspan x="-83.16" y="0">プログラミング</tspan><tspan x="-36" y="41">初心者</tspan></text><circle class="d" cx="40" cy="40" r="40" transform="translate(908 8473)"/><text class="e" transform="translate(948 8502)"><tspan x="-48" y="0">駆け出し</tspan><tspan x="-24" y="41">現役</tspan></text><text class="c" transform="translate(1159 8502)"><tspan x="-83.16" y="0">プログラミング</tspan><tspan x="-36" y="41">初心者</tspan></text><rect class="a" width="320" height="80" transform="translate(100 8373)"/><text class="b" transform="translate(130 8424)"><tspan x="0" y="0">転職支援</tspan></text><circle class="d" cx="40" cy="40" r="40" transform="translate(486 8373)"/><text class="e" transform="translate(502 8422)"><tspan x="0" y="0">あり</tspan></text><circle class="d" cx="40" cy="40" r="40" transform="translate(697 8373)"/><text class="e" transform="translate(713 8422)"><tspan x="0" y="0">あり</tspan></text><text class="c" transform="translate(924 8422)"><tspan x="0" y="0">なし</tspan></text><text class="c" transform="translate(1135 8422)"><tspan x="0" y="0">なし</tspan></text><rect class="a" width="320" height="80" transform="translate(100 8273)"/><text class="b" transform="translate(130 8297)"><tspan x="0" y="25">イベント</tspan></text><circle class="d" cx="40" cy="40" r="40" transform="translate(486 8273)"/><text class="e" transform="translate(526 8302)"><tspan x="-59.4" y="0">イベント多</tspan><tspan x="-24" y="41">活発</tspan></text><text class="c" transform="translate(737 8322)"><tspan x="-36" y="0">少ない</tspan></text><text class="c" transform="translate(948 8322)"><tspan x="-48" y="0">一部だけ</tspan></text><text class="c" transform="translate(1159 8322)"><tspan x="-59.4" y="0">イベント有</tspan></text><rect class="a" width="320" height="80" transform="translate(100 8173)"/><text class="b" transform="translate(130 8224)"><tspan x="0" y="0">２次受託支援</tspan></text><circle class="d" cx="40" cy="40" r="40" transform="translate(486 8173)"/><text class="e" transform="translate(502 8222)"><tspan x="0" y="0">あり</tspan></text><text class="c" transform="translate(713 8222)"><tspan x="0" y="0">なし</tspan></text><text class="c" transform="translate(924 8222)"><tspan x="0" y="0">なし</tspan></text><text class="c" transform="translate(1135 8222)"><tspan x="0" y="0">なし</tspan></text><rect class="a" width="320" height="80" transform="translate(100 8073)"/><text class="b" transform="translate(130 8124)"><tspan x="0" y="0">受注内容</tspan></text><circle class="d" cx="40" cy="40" r="40" transform="translate(486 8073)"/><text class="e" transform="translate(502 8122)"><tspan x="0" y="0">多彩</tspan></text><text class="c" transform="translate(701 8122)"><tspan x="0" y="0">１言語</tspan></text><text class="c" transform="translate(912 8122)"><tspan x="0" y="0">３種類</tspan></text><text class="c" transform="translate(1135 8122)"><tspan x="0" y="0">なし</tspan></text><rect class="a" width="320" height="80" transform="translate(100 7973)"/><text class="b" transform="translate(130 8024)"><tspan x="0" y="0">受注件数</tspan></text><circle class="d" cx="40" cy="40" r="40" transform="translate(486 7973)"/><text class="e" transform="translate(482 8022)"><tspan x="0" y="0">10件/月</tspan></text><text class="c" transform="translate(683 8022)"><tspan x="0" y="0">１件/半年</tspan></text><text class="c" transform="translate(882 8022)"><tspan x="0" y="0">１件/３ヶ月</tspan></text><text class="c" transform="translate(1135 8022)"><tspan x="0" y="0">なし</tspan></text><text class="b" transform="translate(469 7903)"><tspan x="0" y="0">TRYBEE</tspan></text><text class="f" transform="translate(685 7903)"><tspan x="0" y="0">Aサロン</tspan></text><text class="f" transform="translate(896 7903)"><tspan x="0" y="0">Bサロン</tspan></text><text class="f" transform="translate(1110 7903)"><tspan x="0" y="0">cサロン</tspan></text></g></svg>