<svg xmlns="http://www.w3.org/2000/svg" width="317" height="596" viewBox="0 0 317 596"><defs><style>.a{fill:#dfeef4;}.b,.d{fill:#1c56b7;}.b,.f{font-size:12px;}.b,.d,.f{font-family:YuGo-Bold, YuGothic;font-weight:700;}.c{fill:#fcd917;}.d,.e{font-size:10px;}.e,.f{fill:#707070;}.e{font-family:YuGo-Medium, YuGothic;font-weight:500;}</style></defs><g transform="translate(0 -6598)"><g transform="translate(0 -4)"><rect class="a" width="68" height="58" transform="translate(0 6994)"/><text class="b" transform="translate(10 7004)"><tspan x="0" y="11">エンジニ</tspan><tspan x="0" y="31">ア率</tspan></text><circle class="c" cx="29" cy="29" r="29" transform="translate(69 6994)"/><text class="d" transform="translate(98 7019)"><tspan x="-20" y="0">駆け出し</tspan><tspan x="-10" y="17">現役</tspan></text><text class="e" transform="translate(129 7007)"><tspan x="0.35" y="9">プログラミン</tspan><tspan x="10" y="26">グ初心者</tspan></text><circle class="c" cx="29" cy="29" r="29" transform="translate(197 6994)"/><text class="d" transform="translate(227 7019)"><tspan x="-20" y="0">駆け出し</tspan><tspan x="-10" y="17">現役</tspan></text><text class="e" transform="translate(257 7006)"><tspan x="0.35" y="9">プログラミン</tspan><tspan x="10" y="26">グ初心者</tspan></text></g><g transform="translate(0 -4)"><rect class="a" width="68" height="58" transform="translate(0 7140)"/><text class="b" transform="translate(22 7174)"><tspan x="0" y="0">料金</tspan></text><text class="e" transform="translate(76 7173)"><tspan x="0" y="0">２万円/月</tspan></text><text class="e" transform="translate(131 7173)"><tspan x="0" y="0">10万円/初回</tspan></text><circle class="c" cx="29" cy="29" r="29" transform="translate(197 7140)"/><text class="d" transform="translate(202 7173)"><tspan x="0" y="0">3980円/月</tspan></text><text class="e" transform="translate(257 7173)"><tspan x="0" y="0">８万円/初回</tspan></text></g><g transform="translate(0 -4)"><rect class="a" width="68" height="58" transform="translate(0 7067)"/><text class="b" transform="translate(10 7078)"><tspan x="0" y="11">企業様と</tspan><tspan x="0" y="31">繋がれる</tspan></text><circle class="c" cx="29" cy="29" r="29" transform="translate(69 7067)"/><text class="d" transform="translate(98 7101)"><tspan x="-25" y="0">チャンス多</tspan></text><text class="e" transform="translate(149 7101)"><tspan x="0" y="0">なし</tspan></text><text class="e" transform="translate(226 7101)"><tspan x="-25" y="0">チャンス少</tspan></text><text class="e" transform="translate(279 7101)"><tspan x="0" y="0">なし</tspan></text></g><g transform="translate(0 -4)"><rect class="a" width="68" height="58" transform="translate(0 6921)"/><text class="b" transform="translate(10 6955)"><tspan x="0" y="0">転職支援</tspan></text><circle class="c" cx="29" cy="29" r="29" transform="translate(69 6921)"/><text class="d" transform="translate(88 6954)"><tspan x="0" y="0">あり</tspan></text><circle class="c" cx="29" cy="29" r="29" transform="translate(130 6921)"/><text class="d" transform="translate(149 6954)"><tspan x="0" y="0">あり</tspan></text><text class="e" transform="translate(214 6954)"><tspan x="0" y="0">なし</tspan></text><text class="e" transform="translate(279 6954)"><tspan x="0" y="0">なし</tspan></text></g><g transform="translate(0 -4)"><rect class="a" width="68" height="58" transform="translate(0 6848)"/><text class="b" transform="translate(11 6882)"><tspan x="0" y="0">イベント</tspan></text><circle class="c" cx="29" cy="29" r="29" transform="translate(69 6848)"/><text class="d" transform="translate(98 6873)"><tspan x="-24.75" y="0">イベント多</tspan><tspan x="-10" y="17">活発</tspan></text><text class="e" transform="translate(159 6881)"><tspan x="-15" y="0">少ない</tspan></text><text class="e" transform="translate(227 6881)"><tspan x="-20" y="0">一部だけ</tspan></text><text class="e" transform="translate(292 6881)"><tspan x="-24.75" y="0">イベント有</tspan></text></g><g transform="translate(0 -4)"><rect class="a" width="68" height="58" transform="translate(0 6775)"/><text class="b" transform="translate(7 6786)"><tspan x="0" y="11">２次受託</tspan><tspan x="0" y="31">支援</tspan></text><circle class="c" cx="29" cy="29" r="29" transform="translate(69 6775)"/><text class="d" transform="translate(88 6808)"><tspan x="0" y="0">あり</tspan></text><text class="e" transform="translate(149 6808)"><tspan x="0" y="0">なし</tspan></text><text class="e" transform="translate(214 6808)"><tspan x="0" y="0">なし</tspan></text><text class="e" transform="translate(279 6808)"><tspan x="0" y="0">なし</tspan></text></g><g transform="translate(0 -4)"><rect class="a" width="68" height="58" transform="translate(0 6702)"/><text class="b" transform="translate(10 6736)"><tspan x="0" y="0">受注内容</tspan></text><circle class="c" cx="29" cy="29" r="29" transform="translate(69 6702)"/><text class="d" transform="translate(88 6735)"><tspan x="0" y="0">多彩</tspan></text><text class="e" transform="translate(144 6735)"><tspan x="0" y="0">１言語</tspan></text><text class="e" transform="translate(207 6735)"><tspan x="0" y="0">３種類</tspan></text><text class="e" transform="translate(279 6735)"><tspan x="0" y="0">なし</tspan></text></g><g transform="translate(0 -4)"><rect class="a" width="68" height="58" transform="translate(0 6629)"/><text class="b" transform="translate(10 6663)"><tspan x="0" y="0">受注件数</tspan></text><circle class="c" cx="29" cy="29" r="29" transform="translate(69 6629)"/><text class="d" transform="translate(80 6662)"><tspan x="0" y="0">10件/月</tspan></text><text class="e" transform="translate(137 6662)"><tspan x="0" y="0">１件/半年</tspan></text><text class="e" transform="translate(191 6662)"><tspan x="0" y="0">１件/３ヶ月</tspan></text><text class="e" transform="translate(279 6662)"><tspan x="0" y="0">なし</tspan></text></g><g transform="translate(0 1)"><text class="b" transform="translate(74 6608)"><tspan x="0" y="0">TRYBEE</tspan></text><text class="f" transform="translate(137 6608)"><tspan x="0" y="0">Aサロン</tspan></text><text class="f" transform="translate(203 6608)"><tspan x="0" y="0">Bサロン</tspan></text><text class="f" transform="translate(269 6608)"><tspan x="0" y="0">cサロン</tspan></text></g></g></svg>