<svg xmlns="http://www.w3.org/2000/svg" width="665" height="644" viewBox="0 0 665 644"><defs><style>.a{fill:#dfeef4;}.b,.e{fill:#1c56b7;}.b,.f{font-size:20px;}.b,.e,.f{font-family:YuGo-Bold, YuGothic;font-weight:700;}.c,.f{fill:#707070;}.c,.e{font-size:16px;}.c{font-family:YuGo-Medium, YuGothic;font-weight:500;}.d{fill:#fcd917;}</style></defs><g transform="translate(-15 -6811)"><rect class="a" width="190" height="60" transform="translate(15 7395)"/><text class="b" transform="translate(30 7433)"><tspan x="0" y="0">料金</tspan></text><text class="c" transform="translate(234 7431)"><tspan x="0" y="0">２万円/月</tspan></text><text class="c" transform="translate(338 7431)"><tspan x="0" y="0">10万円/初回</tspan></text><circle class="d" cx="30" cy="30" r="30" transform="translate(476 7395)"/><text class="e" transform="translate(467 7431)"><tspan x="0" y="0">3980円/月</tspan></text><text class="c" transform="translate(580 7431)"><tspan x="0" y="0">８万円/初回</tspan></text><rect class="a" width="190" height="60" transform="translate(15 7320)"/><text class="b" transform="translate(30 7358)"><tspan x="0" y="0">企業様と繋がれる</tspan></text><circle class="d" cx="30" cy="30" r="30" transform="translate(240 7320)"/><text class="e" transform="translate(270 7356)"><tspan x="-40" y="0">チャンス多</tspan></text><text class="c" transform="translate(366 7356)"><tspan x="0" y="0">なし</tspan></text><text class="c" transform="translate(506 7356)"><tspan x="-40" y="0">チャンス少</tspan></text><text class="c" transform="translate(608 7356)"><tspan x="0" y="0">なし</tspan></text><rect class="a" width="190" height="60" transform="translate(15 7245)"/><text class="b" transform="translate(30 7283)"><tspan x="0" y="0">エンジニア率</tspan></text><circle class="d" cx="30" cy="30" r="30" transform="translate(240 7245)"/><text class="e" transform="translate(270 7267)"><tspan x="-32" y="0">駆け出し</tspan><tspan x="-16" y="27">現役</tspan></text><text class="c" transform="translate(382 7267)"><tspan x="-55.44" y="0">プログラミング</tspan><tspan x="-24" y="27">初心者</tspan></text><circle class="d" cx="30" cy="30" r="30" transform="translate(476 7245)"/><text class="e" transform="translate(506 7267)"><tspan x="-32" y="0">駆け出し</tspan><tspan x="-16" y="27">現役</tspan></text><text class="c" transform="translate(624 7267)"><tspan x="-55.44" y="0">プログラミング</tspan><tspan x="-24" y="27">初心者</tspan></text><rect class="a" width="190" height="60" transform="translate(15 7170)"/><text class="b" transform="translate(30 7208)"><tspan x="0" y="0">転職支援</tspan></text><circle class="d" cx="30" cy="30" r="30" transform="translate(240 7170)"/><text class="e" transform="translate(254 7206)"><tspan x="0" y="0">あり</tspan></text><circle class="d" cx="30" cy="30" r="30" transform="translate(352 7170)"/><text class="e" transform="translate(366 7206)"><tspan x="0" y="0">あり</tspan></text><text class="c" transform="translate(490 7206)"><tspan x="0" y="0">なし</tspan></text><text class="c" transform="translate(608 7206)"><tspan x="0" y="0">なし</tspan></text><rect class="a" width="190" height="60" transform="translate(15 7095)"/><text class="b" transform="translate(30 7133)"><tspan x="0" y="0">イベント</tspan></text><circle class="d" cx="30" cy="30" r="30" transform="translate(240 7095)"/><text class="e" transform="translate(270 7118)"><tspan x="-39.6" y="0">イベント多</tspan><tspan x="-16" y="27">活発</tspan></text><text class="c" transform="translate(382 7131)"><tspan x="-24" y="0">少ない</tspan></text><text class="c" transform="translate(506 7131)"><tspan x="-32" y="0">一部だけ</tspan></text><text class="c" transform="translate(624 7131)"><tspan x="-39.6" y="0">イベント有</tspan></text><rect class="a" width="190" height="60" transform="translate(15 7020)"/><text class="b" transform="translate(30 7058)"><tspan x="0" y="0">２次受託支援</tspan></text><circle class="d" cx="30" cy="30" r="30" transform="translate(240 7020)"/><text class="e" transform="translate(254 7056)"><tspan x="0" y="0">あり</tspan></text><text class="c" transform="translate(366 7056)"><tspan x="0" y="0">なし</tspan></text><text class="c" transform="translate(490 7056)"><tspan x="0" y="0">なし</tspan></text><text class="c" transform="translate(608 7056)"><tspan x="0" y="0">なし</tspan></text><rect class="a" width="190" height="60" transform="translate(15 6945)"/><text class="b" transform="translate(30 6983)"><tspan x="0" y="0">受注内容</tspan></text><circle class="d" cx="30" cy="30" r="30" transform="translate(240 6945)"/><text class="e" transform="translate(254 6981)"><tspan x="0" y="0">多彩</tspan></text><text class="c" transform="translate(358 6981)"><tspan x="0" y="0">１言語</tspan></text><text class="c" transform="translate(482 6981)"><tspan x="0" y="0">３種類</tspan></text><text class="c" transform="translate(608 6981)"><tspan x="0" y="0">なし</tspan></text><rect class="a" width="190" height="60" transform="translate(15 6870)"/><text class="b" transform="translate(30 6908)"><tspan x="0" y="0">受注件数</tspan></text><circle class="d" cx="30" cy="30" r="30" transform="translate(240 6870)"/><text class="e" transform="translate(241 6906)"><tspan x="0" y="0">10件/月</tspan></text><text class="c" transform="translate(346 6906)"><tspan x="0" y="0">１件/半年</tspan></text><text class="c" transform="translate(462 6906)"><tspan x="0" y="0">１件/３ヶ月</tspan></text><text class="c" transform="translate(608 6906)"><tspan x="0" y="0">なし</tspan></text><text class="b" transform="translate(230 6829)"><tspan x="0" y="0">TRYBEE</tspan></text><text class="f" transform="translate(345 6829)"><tspan x="0" y="0">Aサロン</tspan></text><text class="f" transform="translate(469 6829)"><tspan x="0" y="0">Bサロン</tspan></text><text class="f" transform="translate(589 6829)"><tspan x="0" y="0">cサロン</tspan></text></g></svg>